<svg xmlns="http://www.w3.org/2000/svg" xmlns:xlink="http://www.w3.org/1999/xlink" viewBox="0 0 100 100">
  <path id="svg-twitter" d="M76.688,33.23c-1.947,0.863-4.042,1.448-6.241,1.709c2.242-1.344,3.965-3.472,4.779-6.007c-2.102,1.244-4.427,2.149-6.899,2.634c-1.982-2.11-4.806-3.429-7.931-3.429c-5.999,0-10.862,4.864-10.862,10.862c0,0.853,0.097,1.683,0.281,2.476c-9.027-0.453-17.034-4.779-22.39-11.35c-0.936,1.605-1.473,3.469-1.473,5.461c0,3.769,1.918,7.095,4.833,9.043c-1.78-0.055-3.455-0.545-4.92-1.357c-0.002,0.043-0.002,0.091-0.002,0.136c0,5.265,3.745,9.653,8.713,10.652c-0.911,0.25-1.872,0.383-2.863,0.383c-0.698,0-1.38-0.069-2.043-0.198c1.381,4.316,5.394,7.456,10.147,7.545c-3.716,2.913-8.402,4.649-13.492,4.649c-0.875,0-1.739-0.05-2.59-0.152c4.807,3.083,10.519,4.883,16.652,4.883c19.982,0,30.91-16.555,30.91-30.91c0-0.472-0.01-0.94-0.033-1.404c2.124-1.534,3.966-3.445,5.421-5.624h0.003V33.23z"/>
</svg>
